# xmcd
#
# Track frame offsets: 
#        150
#        9235
#        19862
#        33687
#        52462
#        66562
#        74775
#        87500
#        101612
#        111275
#        124362
#        137722
#        150635
#        161510
#
# Disc length: 2345 seconds
#
# Revision: 2
# Processed by: cddbd v1.5.1PL0 Copyright (c) Steve Scherf et al.
# Submitted via: ExactAudioCopy v0.90b4
#
DISCID=d309270e
DTITLE=Johnny Cash - Hello, I'm Johnny Cash
DYEAR=1992
DGENRE=Country
TTITLE0=Rosanna's Going Wild
TTITLE1=Daddy Sang Bass
TTITLE2=Don't Take Your Guns To Town
TTITLE3=The Ballad Of Ira Hayse
TTITLE4=The Long Black Veil
TTITLE5=Five Feet High And Rising
TTITLE6=The One On The Right Is On The Left
TTITLE7=Orange Blossom Special
TTITLE8=What Do I Care
TTITLE9=Man In Black
TTITLE10=Don't Think Twice, It's All Right
TTITLE11=See Ruby Fall
TTITLE12=Blistered
TTITLE13=Happy To Be With You
EXTD=
EXTT0=J. Carter - H. Carter - A. Carter\n
EXTT1=C. Perkins\n\n\n
EXTT2=J. Cash\n
EXTT3=P. La Farge\n
EXTT4=M. Wilkin - D. Dill\n
EXTT5=J. Cash\n
EXTT6=J.H. Clement\n
EXTT7=E.T. Rouse\n
EXTT8=J. Cash\n
EXTT9=J. Cash\n
EXTT10=B. Dylan\n
EXTT11=J. Cash - R. Orbison\n
EXTT12=B.E. Wheeler\n
EXTT13=J. Carter - J. Cash - M. Kilgore\n
PLAYORDER=
